<?xml version="1.0" encoding="UTF-8"?>
<svg id="uuid-dee6c148-5145-470d-ab81-682132fafed4" data-name="Capa 1" xmlns="http://www.w3.org/2000/svg" width="1000" height="1000" viewBox="0 0 1000 1000">
  <path d="M238.8951392802,125.2190405315c-3.2512907312-5.6314514793,24.6813837696-28.5192356522,24.6813837696-28.5192356522l22.8094429773-13.1691765824c7.0621457661-4.077374653,16.3482672998-2.678098448,19.599558031,2.9533530313l85.905153721,148.7934315927c3.2512907312,5.6314514793-.1831425041,14.3676880442-7.2452882702,18.4450626972l-40.2521618788,23.2398409786c-7.0621457661,4.077374653-16.3416438979,2.6816070068-19.5929346291-2.9498444725l-85.905153721-148.7934315927Z" style="fill: #1d1d1b;"/>
  <path d="M86.4893766793,305.9830256456c-5.631397882-3.2513200643-7.0326552928-12.534083332-2.9553234875-19.5962998126l23.2395967594-40.2525649304c4.0773318053-7.0622164806,12.8189809964-10.4935118866,18.4503788784-7.2421918223l148.7920154528,85.9059287566c5.631397882,3.2513200643,7.0251649962,12.5343565627,2.9478331909,19.5965730432l-23.2395967594,40.2525649304c-4.0773318053,7.0622164806-12.8114906998,10.4932386559-18.4428885818,7.2419185916l-148.7920154528-85.9059287566Z" style="fill: #1d1d1b;"/>
  <path d="M44.8827744315,538.7347589596c-6.5025777818-.0000022526-12.3574353127-7.3384781402-12.3574324879-15.4932228303l.0000161009-46.4796556486c.0000028249-8.1547446902,5.8548654414-15.4971983303,12.3574432232-15.4971960777l171.8102101931.0000595174c6.5025777818.0000022526,12.3510851378,7.3424599469,12.3510823129,15.4972046371l-.0000161009,46.4796556486c-.0000028249,8.1547446902-5.8485152664,15.4932165235-12.3510930482,15.493214271l-171.8102101931-.0000595174Z" style="fill: #1d1d1b;"/>
  <path d="M125.2226099239,761.1072806789c-5.6313976129,3.2513205305-14.3710562031-.1765258042-18.448388593-7.2387419472l-23.2396000913-40.2525630067c-4.0773323899-7.062216143-2.6780666324-16.3484278745,2.9533309804-19.599748405l148.7920083418-85.9059410734c5.6313976129-3.2513205305,14.3675476763.1831492696,18.4448800662,7.2453654127l23.2396000913,40.2525630067c4.0773323899,7.062216143,2.6815751592,16.3418044091-2.9498224537,19.5931249395l-148.7920083418,85.9059410734Z" style="fill: #1d1d1b;"/>
  <path d="M305.9849121642,913.5146576009c-3.2512884247,5.631452811-12.5339610712,7.0327237235-19.5961085072,2.955351963l-40.2521713971-23.2398244923c-7.0621474361-4.0773717605-10.4934091631-12.8191063844-7.2421207383-18.4505591953l85.9050927799-148.7934667775c3.2512884247-5.631452811,12.534234299-7.0252333537,19.5963817351-2.9478615932l40.2521713971,23.2398244923c7.0621474361,4.0773717605,10.4931359352,12.8116160146,7.2418475105,18.4430688255l-85.9050927798,148.7934667774Z" style="fill: #1d1d1b;"/>
  <path d="M538.7377338228,955.1213845807c.0000456555,6.5026412817-7.3383154337,12.357610054-15.4929804903,12.3576673095l-46.4792017607.0003263399c-8.1546650566.0000572556-15.4970901314-5.8548084399-15.4971357868-12.3574497216l-.0012063026-171.8118879798c-.0000456555-6.5026412817,7.3422972483-12.3512598463,15.496962305-12.3513171019l46.4792017607-.0003263399c8.1546650566-.0000572556,15.4931083167,5.8484582322,15.4931539722,12.351099514l.0012063026,171.8118879798Z" style="fill: #1d1d1b;"/>
  <path d="M538.7327905177,216.6836092636c.0000456555,6.5026412817-7.3383154337,12.357610054-15.4929804903,12.3576673095l-46.4792017607.0003263399c-8.1546650566.0000572556-15.4970901314-5.8548084399-15.4971357868-12.3574497216l-.0012063026-171.8118879798c-.0000456555-6.5026412817,7.3422972483-12.3512598463,15.496962305-12.3513171019l46.4792017607-.0003263399c8.1546650566-.0000572556,15.4931083167,5.8484582322,15.4931539722,12.351099514l.0012063026,171.8118879798Z" style="fill: #1d1d1b;"/>
  <path d="M761.1048607198,125.2190405315c3.2512907312-5.6314514793-.1765191021-14.371196603-7.2386648682-18.448571256l-40.2521618788-23.2398409786c-7.0621457661-4.077374653-16.3482672998-2.678098448-19.599558031,2.9533530313l-85.905153721,148.7934315927c-3.2512907312,5.6314514793.1831425041,14.3676880442,7.2452882702,18.4450626972l40.2521618788,23.2398409786c7.0621457661,4.077374653,16.3416438979,2.6816070068,19.5929346291-2.9498444725l85.905153721-148.7934315927Z" style="fill: #1d1d1b;"/>
  <path d="M913.5106233207,305.9830256456c5.631397882-3.2513200643,7.0326552928-12.534083332,2.9553234875-19.5962998126l-23.2395967594-40.2525649304c-4.0773318053-7.0622164806-12.8189809964-10.4935118866-18.4503788784-7.2421918223l-148.7920154528,85.9059287566c-5.631397882,3.2513200643-7.0251649962,12.5343565627-2.9478331909,19.5965730432l23.2395967594,40.2525649304c4.0773318053,7.0622164806,12.8114906998,10.4932386559,18.4428885818,7.2419185916l148.7920154528-85.9059287566Z" style="fill: #1d1d1b;"/>
  <path d="M955.1172255685,538.7347589596c6.5025777818-.0000022526,12.3574353127-7.3384781402,12.3574324879-15.4932228303l-.0000161009-46.4796556486c-.0000028249-8.1547446902-5.8548654414-15.4971983303-12.3574432232-15.4971960777l-171.8102101931.0000595174c-6.5025777818.0000022526-12.3510851378,7.3424599469-12.3510823129,15.4972046371l.0000161009,46.4796556486c.0000028249,8.1547446902,5.8485152664,15.4932165235,12.3510930482,15.493214271l171.8102101931-.0000595174Z" style="fill: #1d1d1b;"/>
  <path d="M874.7773900761,761.1072806789c5.6313976129,3.2513205305,14.3710562031-.1765258042,18.448388593-7.2387419472l23.2396000913-40.2525630067c4.0773323899-7.062216143,2.6780666324-16.3484278745-2.9533309804-19.599748405l-148.7920083418-85.9059410734c-5.6313976129-3.2513205305-14.3675476763.1831492696-18.4448800662,7.2453654127l-23.2396000913,40.2525630067c-4.0773323899,7.062216143-2.6815751592,16.3418044091,2.9498224537,19.5931249395l148.7920083418,85.9059410734Z" style="fill: #1d1d1b;"/>
  <path d="M694.0150878358,913.5146576009c3.2512884247,5.631452811,44.7585426069-11.5723252275,44.7585426069-11.5723252275l15.0897372974-8.7121473018c7.0621474361-4.0773717605,10.4934091631-12.8191063844,7.2421207383-18.4505591953l-85.9050927799-148.7934667775c-3.2512884247-5.631452811-12.534234299-7.0252333537-19.5963817351-2.9478615932l-40.2521713971,23.2398244923c-7.0621474361,4.0773717605-10.4931359352,12.8116160146-7.2418475105,18.4430688255l85.9050927799,148.7934667774Z" style="fill: #1d1d1b;"/>
  <path d="M461.2622661772,955.1213845807c-.0000456555,6.5026412817,7.3383154337,12.357610054,15.4929804903,12.3576673095l46.4792017607.0003263399c8.1546650566.0000572556,15.4970901314-5.8548084399,15.4971357868-12.3574497216l.0012063026-171.8118879798c.0000456555-6.5026412817-7.3422972483-12.3512598463-15.496962305-12.3513171019l-46.4792017607-.0003263399c-8.1546650566-.0000572556-15.4931083167,5.8484582322-15.4931539722,12.351099514l-.0012063026,171.8118879798Z" style="fill: #1d1d1b;"/>
  <path d="M461.2672094823,216.6836092636c-.0000456555,6.5026412817,7.3383154337,12.357610054,15.4929804903,12.3576673095l46.4792017607.0003263399c8.1546650566.0000572556,15.4970901314-5.8548084399,15.4971357868-12.3574497216l.0012063026-171.8118879798c.0000456555-6.5026412817-7.3422972483-12.3512598463-15.496962305-12.3513171019l-46.4792017607-.0003263399c-8.1546650566-.0000572556-15.4931083167,5.8484582322-15.4931539722,12.351099514l-.0012063026,171.8118879798Z" style="fill: #1d1d1b;"/>
</svg>